<?xml version="1.0" standalone="no"?>
<!DOCTYPE svg PUBLIC "-//W3C//DTD SVG 20010904//EN"
 "http://www.w3.org/TR/2001/REC-SVG-20010904/DTD/svg10.dtd">
<svg version="1.0" xmlns="http://www.w3.org/2000/svg"
 width="113.000000pt" height="113.000000pt" viewBox="0 0 113.000000 113.000000"
 preserveAspectRatio="xMidYMid meet">
<metadata>
Created by potrace 1.11, written by Peter Selinger 2001-2013
</metadata>
<g transform="translate(0.000000,113.000000) scale(0.100000,-0.100000)"
fill="#000000" stroke="none">
<path d="M510 580 l0 -220 45 0 c34 0 45 4 45 15 0 13 6 11 29 -6 61 -45 158
-1 181 80 32 115 -20 221 -107 221 -37 0 -88 -22 -96 -42 -3 -7 -6 29 -6 80
l-1 92 -45 0 -45 0 0 -220z m200 0 c28 -28 27 -98 -1 -134 -43 -54 -109 -20
-109 58 0 80 63 123 110 76z"/>
<path d="M0 745 c0 -28 4 -35 20 -35 19 0 20 -7 20 -140 0 -133 -1 -140 -20
-140 -16 0 -20 -7 -20 -35 l0 -35 90 0 90 0 0 35 c0 28 -4 35 -20 35 -19 0
-20 7 -20 140 0 133 1 140 20 140 16 0 20 7 20 35 l0 35 -90 0 -90 0 0 -35z"/>
<path d="M930 657 c-31 -10 -35 -17 -38 -49 l-3 -37 35 14 c43 18 88 19 104 3
20 -20 14 -27 -35 -34 -95 -13 -133 -46 -133 -115 0 -21 10 -40 30 -61 27 -27
36 -30 73 -25 26 4 48 14 59 27 l18 22 0 -21 c0 -18 6 -21 45 -21 l45 0 0 110
c0 125 -11 160 -60 185 -34 18 -91 19 -140 2z m110 -170 c0 -56 -58 -86 -84
-44 -19 30 15 61 72 66 6 1 12 -9 12 -22z"/>
<path d="M210 625 l0 -34 65 -3 65 -3 -75 -92 c-41 -50 -75 -101 -75 -112 0
-20 5 -21 135 -21 l135 0 0 35 0 35 -71 0 -70 0 70 91 c42 55 71 101 71 115 0
24 0 24 -125 24 l-125 0 0 -35z"/>
</g>
</svg>
