<svg width="80" height="64" fill="none" xmlns="http://www.w3.org/2000/svg"><path d="M15.347 55.286c-2.544 0-4.836-.552-6.876-1.656-2.04-1.128-3.648-2.676-4.824-4.644-1.152-1.968-1.728-4.164-1.728-6.588 0-2.424.576-4.62 1.728-6.588 1.176-1.968 2.784-3.504 4.824-4.608 2.04-1.128 4.332-1.692 6.876-1.692 2.52 0 4.8.564 6.84 1.692 2.04 1.104 3.636 2.64 4.788 4.608 1.152 1.944 1.728 4.14 1.728 6.588 0 2.448-.576 4.656-1.728 6.624-1.152 1.944-2.748 3.48-4.788 4.608-2.04 1.104-4.32 1.656-6.84 1.656zm0-3.204c1.848 0 3.504-.42 4.968-1.26a9.115 9.115 0 003.492-3.456c.864-1.488 1.296-3.144 1.296-4.968 0-1.824-.432-3.468-1.296-4.932a9.043 9.043 0 00-3.492-3.492c-1.464-.84-3.12-1.26-4.968-1.26-1.848 0-3.528.42-5.04 1.26a9.3 9.3 0 00-3.528 3.492c-.84 1.464-1.26 3.108-1.26 4.932 0 1.824.42 3.48 1.26 4.968a9.379 9.379 0 003.528 3.456c1.512.84 3.192 1.26 5.04 1.26zm42.223 2.916l-.036-18.36-9.108 15.3H46.77l-9.108-15.192v18.252h-3.456v-25.2h2.952L47.67 47.51l10.368-17.712h2.952l.036 25.2H57.57z" fill="#333"/><path d="M76.678 19.63l-1.413-.432a.51.51 0 00-.536.145c-.343.388-.72.756-1.12 1.096-2.964 2.515-6.684 3.373-10.759 2.484-4.054-.884-5.918-3.231-8.497-6.479l-.564-.708a2.702 2.702 0 01-.075-.102 2.41 2.41 0 00-.286-.347 4.653 4.653 0 00-.552-.462 1.822 1.822 0 01-.74-1.247l-.434-3.321a.579.579 0 00-.205-.37.547.547 0 00-.395-.126l-2.14.188a.513.513 0 00-.46.59l.417 3.185c.045.35-.068.704-.31.974-.37.412-.558.92-.545 1.47.169 6.948 4.828 12.091 12.463 13.758 3.295.719 6.8.289 9.867-1.211a14.32 14.32 0 001.75-1.012 12.861 12.861 0 002.078-1.75c1.104-1.154 1.907-2.447 2.387-3.842.205-.599.362-1.22.465-1.845a.575.575 0 00-.396-.636zm-27.045-8.642l1.08-.095.288 2.201-.436.011-.653.016-.279-2.133zm21.898 15.8c-2.97 2.014-7.001 2.908-10.828 2.073-7.09-1.547-11.415-6.284-11.57-12.67-.008-.342.148-.59.28-.737.315-.351.51-.786.567-1.244l1.209-.03a2.968 2.968 0 001.102 1.528c.148.105.288.222.416.347.053.052.1.118.154.194.035.048.07.099.112.15l.562.706c2.623 3.304 4.696 5.914 9.139 6.883 2.226.486 4.375.485 6.387-.004a12.652 12.652 0 004.996-2.48l.036.017.192.093a10.303 10.303 0 01-2.888 2.961c-2.496 1.694-5.735 2.304-9.08 1.574-5.21-1.137-8.92-3.94-10.45-7.895a.555.555 0 00-.694-.336.525.525 0 00-.297.694c1.672 4.327 5.672 7.382 11.264 8.602 2.728.595 5.438.378 7.836-.627a11.719 11.719 0 002.051-1.109 11.29 11.29 0 003.25-3.379l.147.072c-.755 1.846-2.139 3.427-3.893 4.616zm4.24-5.634l-.219-.106-.63-.308c.135-.132.267-.267.395-.404l.61.187a10.44 10.44 0 01-.156.631z" fill="#000"/></svg>