<svg version="1.0" xmlns="http://www.w3.org/2000/svg" width="150.667" height="150.667" viewBox="0 0 113 113"><path d="M51 55v22h4.5c3.4 0 4.5-.4 4.5-1.5 0-1.3.6-1.1 2.9.6 6.1 4.5 15.8.1 18.1-8C84.2 56.6 79 46 70.3 46c-3.7 0-8.8 2.2-9.6 4.2-.3.7-.6-2.9-.6-8L60 33h-9v22zm20 0c2.8 2.8 2.7 9.8-.1 13.4-4.3 5.4-10.9 2-10.9-5.8 0-8 6.3-12.3 11-7.6zM0 38.5C0 41.3.4 42 2 42c1.9 0 2 .7 2 14s-.1 14-2 14c-1.6 0-2 .7-2 3.5V77h18v-3.5c0-2.8-.4-3.5-2-3.5-1.9 0-2-.7-2-14s.1-14 2-14c1.6 0 2-.7 2-3.5V35H0v3.5zm93 8.8c-3.1 1-3.5 1.7-3.8 4.9l-.3 3.7 3.5-1.4c4.3-1.8 8.8-1.9 10.4-.3 2 2 1.4 2.7-3.5 3.4C89.8 58.9 86 62.2 86 69.1c0 2.1 1 4 3 6.1 2.7 2.7 3.6 3 7.3 2.5 2.6-.4 4.8-1.4 5.9-2.7l1.8-2.2v2.1c0 1.8.6 2.1 4.5 2.1h4.5V66c0-12.5-1.1-16-6-18.5-3.4-1.8-9.1-1.9-14-.2zm11 17c0 5.6-5.8 8.6-8.4 4.4-1.9-3 1.5-6.1 7.2-6.6.6-.1 1.2.9 1.2 2.2zM21 50.5v3.4l6.5.3 6.5.3-7.5 9.2c-4.1 5-7.5 10.1-7.5 11.2 0 2 .5 2.1 13.5 2.1H46v-7H31.9l7-9.1c4.2-5.5 7.1-10.1 7.1-11.5C46 47 46 47 33.5 47H21v3.5z"/></svg>